<svg width="21" height="18" viewBox="0 0 21 18" fill="none" xmlns="http://www.w3.org/2000/svg">
<path d="M10.9337 2.90661L10.8971 1.22314L9.74543 1.82492L9.71327 2.91413C5.22929 3.36546 1.69385 8.44294 1.69385 14.6488C1.69385 15.0499 1.70846 15.4446 1.73769 15.8327H3.30738C3.29276 15.5484 3.28253 15.2611 3.28253 14.9692C3.28253 9.33959 6.09013 4.71946 9.67235 4.2245L9.35373 14.8007L11.1763 13.898L10.9614 4.22901C14.5349 4.7345 17.3352 9.3441 17.3352 14.9707C17.3352 15.2626 17.3249 15.5499 17.3103 15.8342H18.9765C19.0037 15.4441 19.0179 15.0494 19.0188 14.6503C19.0203 8.41135 15.4498 3.3098 10.9337 2.90661Z" fill="#FFDDBA"/>
</svg>
