<svg width="198" height="50" viewBox="0 0 198 50" fill="none" xmlns="http://www.w3.org/2000/svg">
<path d="M33.6599 26.8C30.8879 18.2 22.9679 8.20004 17.7209 10C12.3749 11.7 11.6819 24.4 14.4539 33.1C17.2259 41.7 22.3739 43 27.7199 41.3C33.0659 39.6 36.4319 35.5 33.6599 26.8ZM25.7399 37.1C21.3839 38.5 17.1269 37.5 14.9489 30.4C12.6719 23.3 13.2659 12.9 17.6219 11.5C21.9779 10.1 28.4129 18.2 30.6899 25.3C32.9669 32.4 30.0959 35.7 25.7399 37.1Z" fill="#FFDDBA"/>
<path d="M17.2261 10.5C17.2261 10.5 15.9391 6.69995 17.5231 4.19995C17.5231 4.19995 18.7111 3.69995 17.7211 5.89995C16.7311 8.09995 18.9091 10.7 18.4141 11.1C17.9191 11.3 17.2261 10.5 17.2261 10.5Z" fill="#FFDDBA"/>
<path d="M56.4301 11.2C57.9151 11.2 59.3011 11.4 60.3901 11.9C61.4791 12.4 62.4691 13 63.1621 13.7C63.8551 14.5 64.4491 15.3 64.8451 16.3C65.2411 17.3 65.4391 18.3 65.4391 19.4C65.4391 20.4 65.2411 21.4 64.9441 22.3C64.6471 23.2 64.1521 24 63.5581 24.7C62.9641 25.4 62.2711 26 61.3801 26.5C60.4891 27 59.4991 27.1999 58.4101 27.2999L68.0131 38.7H64.4491L53.6581 25.6H53.4601V38.7H50.7871V11.2H56.4301ZM53.4601 25.3H56.8261C57.6181 25.3 58.4101 25.1 59.1031 24.8C59.7961 24.5 60.3901 24.1 60.8851 23.6C61.3801 23.1 61.7761 22.5 62.0731 21.8C62.3701 21.1 62.4691 20.3 62.4691 19.5C62.4691 18.8 62.3701 18 62.0731 17.4C61.7761 16.7 61.4791 16.1 60.9841 15.6C60.4891 15.1 59.8951 14.7 59.1031 14.3C58.4101 14 57.5191 13.8 56.5291 13.8H53.4601V25.3Z" fill="#FFDDBA" stroke="#FFDDBA" stroke-miterlimit="10"/>
<path d="M75.834 11.7L74.052 13.8L72.27 11.7L74.052 9.59998L75.834 11.7ZM72.864 38.7V18.6H75.24V38.7H72.864Z" fill="#FFDDBA" stroke="#FFDDBA" stroke-miterlimit="10"/>
<path d="M84.5462 22.4H84.6452C85.1402 21.5 85.7342 20.8 86.4272 20.3C87.1202 19.7 87.8132 19.3 88.5062 19C89.1992 18.7 89.9912 18.5 90.6842 18.3C91.3772 18.2 92.0702 18.1 92.6642 18.1C94.1492 18.1 95.5352 18.4 96.7232 18.9C98.0102 19.5 99.0002 20.2 99.8912 21.2C100.782 22.2 101.475 23.3 101.97 24.5C102.465 25.7 102.762 27 102.762 28.4C102.762 29.9 102.465 31.3 101.97 32.7C101.475 34 100.683 35.1 99.6932 36.1C98.7032 37.1 97.6142 37.8 96.3272 38.4C95.0402 38.9 93.6542 39.2 92.2682 39.2C90.9812 39.2 89.6942 39 88.4072 38.5C87.2192 38 86.1302 37.3 85.1402 36.3C84.1502 35.3 83.4572 34.1 82.8632 32.6C82.2692 31.1 81.9722 29.3 81.9722 27.3V10.1H84.3482V22.4H84.5462ZM92.7632 20.3C91.6742 20.3 90.5852 20.5 89.5952 20.9C88.6052 21.3 87.7142 21.9 87.0212 22.6C86.3282 23.3 85.7342 24.2 85.2392 25.3C84.8432 26.3 84.5462 27.5 84.5462 28.7C84.5462 29.7 84.7442 30.6 85.1402 31.6C85.5362 32.6 86.0312 33.5 86.7242 34.2C87.4172 35 88.2092 35.6 89.1992 36.1C90.1892 36.6 91.2782 36.8 92.4662 36.8C93.7532 36.8 94.9412 36.5 95.9312 36C96.9212 35.5 97.7132 34.8 98.4062 34C99.0992 33.2 99.5942 32.3 99.8912 31.3C100.188 30.3 100.386 29.3 100.386 28.4C100.386 27.3 100.188 26.3 99.7922 25.3C99.3962 24.3 98.9012 23.4 98.2082 22.7C97.5152 21.9 96.7232 21.3 95.8322 20.9C94.8422 20.5 93.8522 20.3 92.7632 20.3Z" fill="#FFDDBA" stroke="#FFDDBA" stroke-miterlimit="10"/>
<path d="M116.721 36.9C118.107 36.9 119.295 36.6 120.483 35.9C121.572 35.2 122.562 34.4 123.255 33.2999H126.027C125.631 34.1999 125.037 34.9 124.443 35.7C123.75 36.4 123.057 36.9999 122.265 37.5999C121.473 38.0999 120.582 38.5 119.691 38.7999C118.8 39.0999 117.81 39.2 116.721 39.2C115.335 39.2 113.949 38.9 112.662 38.4C111.375 37.9 110.286 37.0999 109.395 36.0999C108.504 35.0999 107.712 34 107.217 32.7C106.722 31.4 106.425 30.1 106.425 28.6C106.425 27.1 106.722 25.8 107.217 24.5C107.712 23.2 108.405 22.1 109.296 21.2C110.187 20.3 111.276 19.5 112.464 19C113.652 18.5 115.038 18.2 116.424 18.2C118.008 18.2 119.493 18.5 120.78 19C122.067 19.5 123.156 20.3 123.948 21.2C124.839 22.1 125.532 23.3 125.928 24.5C126.423 25.8 126.621 27.2 126.621 28.6H108.9C108.9 29.7 109.098 30.7999 109.494 31.7999C109.89 32.7999 110.484 33.7 111.177 34.4C111.87 35.1 112.761 35.7 113.652 36.2C114.642 36.7 115.632 36.9 116.721 36.9ZM123.75 26.4C123.651 25.4999 123.354 24.7 122.958 24C122.562 23.3 122.067 22.6 121.374 22.1C120.78 21.6 119.988 21.0999 119.097 20.7999C118.206 20.4999 117.315 20.2999 116.325 20.2999C115.434 20.2999 114.543 20.4999 113.85 20.7999C113.058 21.0999 112.365 21.5 111.771 22.1C111.177 22.6 110.583 23.3 110.187 24C109.692 24.7 109.395 25.4999 109.197 26.4H123.75Z" fill="#FFDDBA" stroke="#FFDDBA" stroke-miterlimit="10"/>
<path d="M141.669 20.8C141.174 20.6 140.58 20.5 139.986 20.5C139.095 20.5 138.303 20.7 137.61 21.1C136.818 21.5 136.224 22.1 135.63 22.8C135.036 23.5 134.541 24.4 134.244 25.3C133.947 26.3 133.749 27.3 133.749 28.4V38.7H131.373V18.6H133.65V22.9H133.749C134.244 21.3 135.234 20.1 136.521 19.2C137.907 18.3 139.392 17.9 141.174 17.9C141.372 17.9 141.57 17.9 141.768 17.9C141.966 17.9 142.164 17.9 142.362 18L141.669 20.8Z" fill="#FFDDBA" stroke="#FFDDBA" stroke-miterlimit="10"/>
<path d="M157.311 20.8C156.816 20.6 156.222 20.5 155.628 20.5C154.737 20.5 153.945 20.7 153.252 21.1C152.46 21.5 151.866 22.1 151.272 22.8C150.678 23.5 150.183 24.4 149.886 25.3C149.589 26.3 149.391 27.3 149.391 28.4V38.7H147.015V18.6H149.292V22.9H149.391C149.886 21.3 150.876 20.1 152.163 19.2C153.549 18.3 155.034 17.9 156.816 17.9C157.014 17.9 157.212 17.9 157.41 17.9C157.608 17.9 157.806 17.9 158.004 18L157.311 20.8Z" fill="#FFDDBA" stroke="#FFDDBA" stroke-miterlimit="10"/>
<path d="M164.043 18.6L171.765 32.8H171.963L178.695 18.6H181.17C178.992 23.3 176.814 28 174.537 32.6C172.26 37.3 169.983 41.8 167.706 46.2H164.934L170.379 35.5L161.271 18.6H164.043Z" fill="#FFDDBA" stroke="#FFDDBA" stroke-miterlimit="10"/>
</svg>
